<?xml version="1.0" encoding="utf-8"?>
<!-- Generator: Adobe Illustrator 24.0.0, SVG Export Plug-In . SVG Version: 6.00 Build 0)  -->
<svg version="1.1" id="Capa_1" xmlns="http://www.w3.org/2000/svg" xmlns:xlink="http://www.w3.org/1999/xlink" x="0px" y="0px"
	 viewBox="0 0 150.7 35" style="enable-background:new 0 0 150.7 35;" xml:space="preserve">
<style type="text/css">
	.st0{fill:none;}
</style>
<g>
	<line class="st0" x1="35.5" y1="17.7" x2="35.5" y2="17.7"/>
	<line class="st0" x1="35.7" y1="18.1" x2="35.7" y2="18.1"/>
	<line class="st0" x1="34.1" y1="20.8" x2="34.1" y2="20.8"/>
	<line class="st0" x1="33.6" y1="20.8" x2="33.6" y2="20.8"/>
	<line class="st0" x1="32.2" y1="18.5" x2="32.2" y2="18.5"/>
	<line class="st0" x1="32.4" y1="18" x2="32.4" y2="18"/>
	<line class="st0" x1="30.7" y1="26.2" x2="30.7" y2="26.2"/>
	<line class="st0" x1="30.7" y1="26.5" x2="30.7" y2="26.5"/>
	<line class="st0" x1="27.9" y1="31.2" x2="27.9" y2="31.2"/>
	<line class="st0" x1="27.4" y1="31.2" x2="27.4" y2="31.2"/>
	<line class="st0" x1="24.4" y1="26.2" x2="24.4" y2="26.2"/>
	<line class="st0" x1="27.5" y1="20.8" x2="27.5" y2="20.8"/>
	<line class="st0" x1="42.8" y1="9.6" x2="42.8" y2="9.6"/>
	<line class="st0" x1="39.4" y1="14.8" x2="39.4" y2="14.8"/>
	<line class="st0" x1="34.1" y1="14.3" x2="34.1" y2="14.3"/>
	<line class="st0" x1="45.1" y1="2.4" x2="45.1" y2="2.4"/>
	<line class="st0" x1="45.2" y1="2.2" x2="45.2" y2="2.2"/>
	<line class="st0" x1="45" y1="1.8" x2="45" y2="1.8"/>
	<line class="st0" x1="39.4" y1="1.8" x2="39.4" y2="1.8"/>
	<line class="st0" x1="39.2" y1="1.9" x2="39.2" y2="1.9"/>
	<line class="st0" x1="30.7" y1="16" x2="30.7" y2="16"/>
	<line class="st0" x1="31" y1="16.4" x2="31" y2="16.4"/>
	<line class="st0" x1="31.3" y1="16.5" x2="31.3" y2="16.5"/>
	<line class="st0" x1="38.7" y1="16.5" x2="38.7" y2="16.5"/>
	<line class="st0" x1="33.8" y1="24.6" x2="33.8" y2="24.6"/>
	<line class="st0" x1="30.3" y1="18.8" x2="30.3" y2="18.8"/>
	<line class="st0" x1="28.8" y1="19.7" x2="28.8" y2="19.7"/>
	<line class="st0" x1="32.8" y1="26.3" x2="32.8" y2="26.3"/>
	<line class="st0" x1="27.6" y1="35" x2="27.6" y2="35"/>
	<line class="st0" x1="22.6" y1="26.5" x2="22.6" y2="26.5"/>
	<line class="st0" x1="26.4" y1="19.4" x2="26.4" y2="19.4"/>
	<line class="st0" x1="26.4" y1="19.1" x2="26.4" y2="19.1"/>
	<line class="st0" x1="16.1" y1="1.9" x2="16.1" y2="1.9"/>
	<line class="st0" x1="15.8" y1="1.7" x2="15.8" y2="1.7"/>
	<line class="st0" x1="10.2" y1="1.7" x2="10.2" y2="1.7"/>
	<line class="st0" x1="10" y1="2.1" x2="10" y2="2.1"/>
	<line class="st0" x1="10.9" y1="3.7" x2="10.9" y2="3.7"/>
	<line class="st0" x1="11.1" y1="3.8" x2="11.1" y2="3.8"/>
	<line class="st0" x1="15.2" y1="3.8" x2="15.2" y2="3.8"/>
	<line class="st0" x1="24.3" y1="19" x2="24.3" y2="19"/>
	<line class="st0" x1="21.3" y1="24.4" x2="21.3" y2="24.4"/>
	<line class="st0" x1="11.2" y1="7.7" x2="11.2" y2="7.7"/>
	<line class="st0" x1="13.3" y1="7.7" x2="13.3" y2="7.7"/>
	<line class="st0" x1="21.1" y1="20.6" x2="21.1" y2="20.6"/>
	<line class="st0" x1="22.2" y1="18.9" x2="22.2" y2="18.9"/>
	<line class="st0" x1="14.2" y1="5.6" x2="14.2" y2="5.6"/>
	<line class="st0" x1="10" y1="5.6" x2="10" y2="5.6"/>
	<line class="st0" x1="6.7" y1="0" x2="6.7" y2="0"/>
	<line class="st0" x1="17" y1="0" x2="17" y2="0"/>
	<line class="st0" x1="27.7" y1="17.9" x2="27.7" y2="17.9"/>
	<line class="st0" x1="28.1" y1="18" x2="28.1" y2="18"/>
	<line class="st0" x1="29.2" y1="17.4" x2="29.2" y2="17.4"/>
	<line class="st0" x1="29.3" y1="17" x2="29.3" y2="17"/>
	<line class="st0" x1="28.7" y1="16" x2="28.7" y2="16"/>
	<line class="st0" x1="38.2" y1="0" x2="38.2" y2="0"/>
	<line class="st0" x1="48.6" y1="0" x2="48.6" y2="0"/>
	<line class="st0" x1="46.2" y1="3.9" x2="46.2" y2="3.9"/>
	<line class="st0" x1="36.6" y1="12.2" x2="36.6" y2="12.2"/>
	<line class="st0" x1="36.8" y1="12.5" x2="36.8" y2="12.5"/>
	<line class="st0" x1="38.1" y1="12.7" x2="38.1" y2="12.7"/>
	<line class="st0" x1="38.4" y1="12.6" x2="38.4" y2="12.6"/>
	<line class="st0" x1="44.9" y1="6.2" x2="44.9" y2="6.2"/>
	<line class="st0" x1="44.9" y1="17.2" x2="44.9" y2="17.2"/>
	<line class="st0" x1="44.7" y1="16.8" x2="44.7" y2="16.8"/>
	<line class="st0" x1="46.3" y1="14.1" x2="46.3" y2="14.1"/>
	<line class="st0" x1="46.7" y1="14.1" x2="46.7" y2="14.1"/>
	<line class="st0" x1="48.2" y1="16.5" x2="48.2" y2="16.5"/>
	<line class="st0" x1="48" y1="16.9" x2="48" y2="16.9"/>
	<line class="st0" x1="49.7" y1="8.8" x2="49.7" y2="8.8"/>
	<line class="st0" x1="49.7" y1="8.5" x2="49.7" y2="8.5"/>
	<line class="st0" x1="52.5" y1="3.8" x2="52.5" y2="3.8"/>
	<line class="st0" x1="52.9" y1="3.8" x2="52.9" y2="3.8"/>
	<line class="st0" x1="55.9" y1="8.8" x2="55.9" y2="8.8"/>
	<line class="st0" x1="52.9" y1="14.2" x2="52.9" y2="14.2"/>
	<line class="st0" x1="37.6" y1="25.4" x2="37.6" y2="25.4"/>
	<line class="st0" x1="41" y1="20.1" x2="41" y2="20.1"/>
	<line class="st0" x1="46.3" y1="20.7" x2="46.3" y2="20.7"/>
	<line class="st0" x1="35.3" y1="32.6" x2="35.3" y2="32.6"/>
	<line class="st0" x1="35.1" y1="32.8" x2="35.1" y2="32.8"/>
	<line class="st0" x1="35.4" y1="33.2" x2="35.4" y2="33.2"/>
	<line class="st0" x1="41" y1="33.2" x2="41" y2="33.2"/>
	<line class="st0" x1="41.2" y1="33.1" x2="41.2" y2="33.1"/>
	<line class="st0" x1="49.7" y1="19" x2="49.7" y2="19"/>
	<line class="st0" x1="49.4" y1="18.6" x2="49.4" y2="18.6"/>
	<line class="st0" x1="49.1" y1="18.5" x2="49.1" y2="18.5"/>
	<line class="st0" x1="41.7" y1="18.5" x2="41.7" y2="18.5"/>
	<line class="st0" x1="46.6" y1="10.4" x2="46.6" y2="10.4"/>
	<line class="st0" x1="50.1" y1="16.2" x2="50.1" y2="16.2"/>
	<line class="st0" x1="51.6" y1="15.3" x2="51.6" y2="15.3"/>
	<line class="st0" x1="47.6" y1="8.6" x2="47.6" y2="8.6"/>
	<line class="st0" x1="52.8" y1="0" x2="52.8" y2="0"/>
	<line class="st0" x1="57.8" y1="8.5" x2="57.8" y2="8.5"/>
	<line class="st0" x1="54" y1="15.6" x2="54" y2="15.6"/>
	<line class="st0" x1="54" y1="15.9" x2="54" y2="15.9"/>
	<line class="st0" x1="64.3" y1="33.1" x2="64.3" y2="33.1"/>
	<line class="st0" x1="64.5" y1="33.2" x2="64.5" y2="33.2"/>
	<line class="st0" x1="70.2" y1="33.2" x2="70.2" y2="33.2"/>
	<line class="st0" x1="70.4" y1="32.8" x2="70.4" y2="32.8"/>
	<line class="st0" x1="69.5" y1="31.3" x2="69.5" y2="31.3"/>
	<line class="st0" x1="69.2" y1="31.1" x2="69.2" y2="31.1"/>
	<line class="st0" x1="65.2" y1="31.1" x2="65.2" y2="31.1"/>
	<line class="st0" x1="56" y1="15.9" x2="56" y2="15.9"/>
	<line class="st0" x1="59.1" y1="10.6" x2="59.1" y2="10.6"/>
	<line class="st0" x1="69.1" y1="27.3" x2="69.1" y2="27.3"/>
	<line class="st0" x1="67.1" y1="27.3" x2="67.1" y2="27.3"/>
	<line class="st0" x1="59.3" y1="14.4" x2="59.3" y2="14.4"/>
	<line class="st0" x1="58.2" y1="16.1" x2="58.2" y2="16.1"/>
	<line class="st0" x1="66.2" y1="29.4" x2="66.2" y2="29.4"/>
	<line class="st0" x1="70.4" y1="29.4" x2="70.4" y2="29.4"/>
	<line class="st0" x1="73.7" y1="35" x2="73.7" y2="35"/>
	<line class="st0" x1="63.4" y1="35" x2="63.4" y2="35"/>
	<line class="st0" x1="52.6" y1="17" x2="52.6" y2="17"/>
	<line class="st0" x1="52.3" y1="17" x2="52.3" y2="17"/>
	<line class="st0" x1="51.2" y1="17.6" x2="51.2" y2="17.6"/>
	<line class="st0" x1="51.1" y1="17.9" x2="51.1" y2="17.9"/>
	<line class="st0" x1="51.7" y1="19" x2="51.7" y2="19"/>
	<line class="st0" x1="42.2" y1="35" x2="42.2" y2="35"/>
	<line class="st0" x1="31.8" y1="35" x2="31.8" y2="35"/>
	<line class="st0" x1="34.2" y1="31" x2="34.2" y2="31"/>
	<line class="st0" x1="43.8" y1="22.8" x2="43.8" y2="22.8"/>
	<line class="st0" x1="43.5" y1="22.4" x2="43.5" y2="22.4"/>
	<line class="st0" x1="42.3" y1="22.3" x2="42.3" y2="22.3"/>
	<line class="st0" x1="42" y1="22.4" x2="42" y2="22.4"/>
	<line class="st0" x1="35.5" y1="28.8" x2="35.5" y2="28.8"/>
	<path d="M38.2,0l-9.6,16l0.6,1v0.1v0.1v0.1l-0.1,0.1l-0.5,0.3L28.1,18H28h-0.1h-0.1l-0.1-0.1L17,0H6.7L10,5.6h4.1l8,13.3l-0.4,0.5
		L21.4,20L21,20.6L13.3,7.7h-2l10,16.7l0.3-0.7l0.3-0.7l0.3-0.7l0.4-0.7l0.4-0.7l0.4-0.6l0.5-0.6l0.5-0.6L15.2,3.8h-4.1H11h-0.1
		l-0.1-0.1L10,2.1V2V1.9V1.8l0.1-0.1h0.1h5.7H16h0.1v0.1L26.5,19v0.1v0.1l-0.1,0.1l-0.5,0.5l-0.5,0.5l-0.5,0.6l-0.4,0.6l-0.4,0.6
		L23.7,23l-0.3,0.7l-0.3,0.7L22.9,25l-0.2,0.7l-0.1,0.7l5.1,8.5l5.2-8.6l-4-6.6l0.5-0.3l0.5-0.3l0.5-0.3l3.5,5.8l4.9-8.1l-0.7-0.2
		l-0.7-0.1L36.7,16L36,15.9h-0.7h-0.7L34,16h-0.7l-0.7,0.1L32,16.3l-0.7,0.2h-0.1h-0.1L31,16.4L30.7,16l8.4-14.1l0.1-0.1h0.1h0.1H45
		h0.1l0.1,0.1V2v0.1v0.1L45,2.5l-0.8,0.3L43.5,3l-0.8,0.4L42,3.8l-0.7,0.4l-0.7,0.5l-0.7,0.5l-0.7,0.5l-0.6,0.6L38,6.9l-0.6,0.6
		L37,8.2l-0.5,0.7L36,9.6l-0.4,0.7l-0.4,0.8l-0.4,0.8l-0.3,0.8l-0.3,0.8L34,14.3h0.8h0.8l0.8,0.1l0.8,0.1l0.8,0.1l0.7,0.2l0.8,0.2
		l0.2-0.6l0.2-0.6l0.3-0.6l0.3-0.6l0.3-0.6l0.4-0.5l0.4-0.5l0.4-0.5l0.5-0.4L43,9.7l2-3.4l-0.6,0.3l-0.6,0.3L43,7.2l-0.6,0.4L41.8,8
		l-0.5,0.5L40.8,9l-0.5,0.5l-0.5,0.6l-0.4,0.6L39,11.3l-0.4,0.6l-0.3,0.6l-0.1,0.1l-0.1,0.1H38l-0.6-0.1l-0.6-0.1h-0.1l-0.1-0.1
		l-0.1-0.1v-0.1v-0.1l0.3-0.7l0.4-0.7l0.4-0.7L38,9.4l0.5-0.6L39,8.2l0.5-0.6L40,7.1l0.6-0.5l0.6-0.5L42,5.8l0.7-0.4L43.4,5l0.7-0.3
		l0.7-0.3l0.7-0.3l0.7-0.2L48.6,0H38.2z M30.7,26.2L30.7,26.2v0.2v0.1l-2.8,4.7l-0.1,0.1h-0.1h-0.1h-0.1l-0.1-0.1l-3-5l0.2-0.6
		l0.2-0.6l0.2-0.6l0.3-0.6l0.3-0.6l0.3-0.5l0.4-0.5l0.4-0.5l0.4-0.5l0.4-0.5L30.7,26.2z M32.2,18.3L32.2,18.3l0.1-0.2h0.1L33,18
		l0.6-0.1l0.6-0.1h0.6h0.6h0.1l0.1,0.1l0.1,0.1v0.1v0.1l-1.6,2.7H34h-0.1h-0.1h-0.1l-0.1-0.1l-1.4-2.4L32.2,18.3L32.2,18.3z"/>
	<path d="M70.4,29.4h-4.2l-8-13.3l0.4-0.5L59,15l0.3-0.6l7.8,12.9h2l-10-16.7l-0.3,0.7L58.5,12l-0.3,0.7l-0.4,0.7l-0.4,0.7L57,14.7
		l-0.5,0.6L56,15.9l9.1,15.2h4.1h0.1h0.1l0.1,0.1l0.9,1.6v0.1V33l-0.1,0.1l-0.1,0.1h-0.1h-5.7h-0.1h-0.1l-0.1-0.1L54,15.9v-0.1v-0.1
		l0.1-0.1l0.5-0.5l0.5-0.6l0.5-0.6l0.4-0.6l0.4-0.6l0.4-0.7l0.3-0.7l0.3-0.7l0.2-0.7l0.2-0.7L58,8.5L52.8,0l-5.2,8.6l4,6.6l-0.5,0.3
		l-0.5,0.3l-0.5,0.3l-3.5-5.8l-4.9,8.1l0.7,0.2l0.7,0.1l0.7,0.1l0.7,0.1h0.7h0.7h0.7l0.7-0.1l0.7-0.1l0.7-0.1l0.7-0.2h0.1h0.1
		l0.1,0.1l0.3,0.4L41.6,33l-0.1,0.1h-0.1h-0.1h-5.6h-0.1L35.5,33h-0.4v-0.1v-0.1l0.1-0.3l0.8-0.3l0.8-0.3l0.8-0.4l0.7-0.4l0.7-0.4
		l0.7-0.5l0.7-0.5l0.7-0.5l0.6-0.6l0.6-0.6l0.6-0.6l0.5-0.7l0.5-0.7l0.5-0.7l0.4-0.7l0.4-0.7l0.3-0.8l0.3-0.8l0.3-0.8l0.2-0.8h-0.8
		h-0.8h-0.8l-0.8-0.1l-0.8-0.1l-0.8-0.2L41,20.1l-0.2,0.6l-0.2,0.6l-0.3,0.6L40,22.5L39.7,23l-0.4,0.5L39,24.1l-0.4,0.5L38.1,25
		l-0.5,0.4l-2,3.4l0.6-0.3l0.6-0.3l0.6-0.4l0.6-0.4l0.6-0.4l0.5-0.5l0.5-0.5l0.5-0.5l0.5-0.5l0.4-0.6l0.4-0.6l0.4-0.6l0.3-0.6
		l0.1-0.1h0.1h0.1l0.6,0.1l0.6,0.1h0.1l0.1,0.1v0.1V23v0.1l-0.3,0.7l-0.4,0.7l-0.4,0.7l-0.4,0.6l-0.5,0.6L41.3,27l-0.5,0.6l-0.6,0.5
		l-0.6,0.5L39,28.8l-0.6,0.4l-0.7,0.4L37.1,30l-0.7,0.3l-0.7,0.3L35,30.9L34.2,31l-2.4,4h10.3l9.6-16l-0.6-1v-0.1v-0.1v-0.1l0.1-0.1
		l0.5-0.3l0.5-0.3h0.1h0.1h0.1l0.1,0.1L63.4,35h10.3L70.4,29.4z M48.2,16.7L48.2,16.7l-0.1,0.2H48L47.4,17l-0.6,0.1l-0.6,0.1h-0.6
		H45h-0.1l-0.1-0.1V17v-0.1v-0.1l1.6-2.7l0.1-0.1h0.1h0.1h0.1l0.1,0.1l1.4,2.4v0.1L48.2,16.7L48.2,16.7z M53.3,13.7l-0.4,0.4
		l-3.2-5.4V8.6V8.5V8.4l2.8-4.7l0.1-0.1h0.1h0.1h0.1L53,3.7l3,5l-0.2,0.6L55.6,10l-0.2,0.6l-0.3,0.6l-0.3,0.6l-0.3,0.5l-0.3,0.5
		l-0.4,0.5L53.3,13.7z"/>
</g>
<g>
	<path d="M77.8,20.7L75.1,8.9H78l1,6.2c0,0.3,0.1,0.6,0.2,1.1c0.1,0.5,0.1,0.9,0.2,1.5v-0.1c0.1-1.2,0.2-2,0.3-2.4l1-6.3h2.9
		l-2.7,11.9L77.8,20.7L77.8,20.7z"/>
	<path d="M84.8,20.7V8.9h2.8v11.9L84.8,20.7L84.8,20.7z"/>
	<path d="M94.4,16.2h2.7c0,0.1,0,0.1,0,0.2s0,0.2,0,0.4c0,1.4-0.3,2.5-1,3.2c-0.6,0.7-1.6,1.1-2.9,1.1c-0.8,0-1.4-0.1-2-0.4
		s-1-0.6-1.3-1.2c-0.2-0.4-0.4-0.9-0.5-1.5c-0.1-0.7-0.2-1.7-0.2-3.1s0.1-2.5,0.2-3.1s0.3-1.2,0.5-1.5c0.3-0.5,0.8-0.9,1.3-1.2
		s1.2-0.4,2-0.4c1.3,0,2.3,0.4,2.9,1.1s1,1.8,1,3.2v0h-2.7c0-0.8-0.1-1.4-0.3-1.7c-0.2-0.3-0.5-0.5-0.9-0.5s-0.8,0.2-0.9,0.6
		c-0.2,0.4-0.2,1.5-0.2,3.2v0.2c0,1.8,0.1,3,0.2,3.4c0.2,0.4,0.5,0.6,0.9,0.6s0.7-0.2,0.9-0.5c0.2-0.3,0.3-0.9,0.3-1.7V16.2z"/>
	<path d="M100.4,20.7v-9.6h-2.3V8.9h7.3v2.3h-2.3v9.6L100.4,20.7L100.4,20.7z"/>
	<path d="M106.4,14.8c0-1.4,0.1-2.5,0.2-3.1s0.3-1.2,0.5-1.5c0.3-0.5,0.8-0.9,1.3-1.2s1.2-0.4,2-0.4s1.4,0.1,2,0.4s1,0.6,1.3,1.2
		c0.2,0.4,0.4,0.9,0.5,1.6c0.1,0.7,0.2,1.7,0.2,3.1s-0.1,2.5-0.2,3.1s-0.3,1.2-0.5,1.6c-0.3,0.5-0.8,0.9-1.3,1.2
		c-0.5,0.3-1.2,0.4-2,0.4s-1.4-0.1-2-0.4s-1-0.6-1.3-1.2c-0.2-0.4-0.4-0.9-0.5-1.5C106.4,17.3,106.4,16.2,106.4,14.8z M111.5,15.9
		v-2.1c0-1.3-0.1-2.1-0.3-2.4s-0.5-0.5-0.9-0.5s-0.7,0.2-0.9,0.5c-0.2,0.3-0.2,1.1-0.2,2.4v2.1c0,1.3,0.1,2.1,0.2,2.4
		c0.2,0.3,0.5,0.5,0.9,0.5s0.7-0.2,0.9-0.5C111.4,18,111.5,17.2,111.5,15.9z"/>
	<path d="M116,20.7V8.9h3.1c1,0,1.8,0,2.2,0.1s0.8,0.3,1.1,0.5c0.3,0.3,0.6,0.6,0.8,1s0.3,0.9,0.3,1.4c0,0.7-0.1,1.3-0.4,1.7
		c-0.2,0.5-0.6,0.8-1.1,1.1c0.9,0.4,1.3,1.3,1.4,2.7l0,0c0,0.1,0,0.4,0,0.6c0,1.3,0.2,2.2,0.7,2.5h-3.2c-0.1-0.2-0.1-0.5-0.2-0.8
		c0-0.3-0.1-0.6-0.1-0.9c0-0.2,0-0.4,0-0.7c0-0.3,0-0.4,0-0.5c0-0.7-0.1-1.2-0.3-1.5c-0.2-0.3-0.5-0.4-1-0.4h-0.6v4.8H116V20.7z
		 M118.8,13.8c0,0,0.1,0,0.2,0c0.1,0,0.1,0,0.2,0c0.6,0,1-0.1,1.2-0.3s0.4-0.6,0.4-1.2c0-0.5-0.1-0.9-0.4-1.1
		c-0.2-0.2-0.6-0.3-1.2-0.3c0,0-0.1,0-0.2,0c-0.1,0-0.1,0-0.2,0V13.8z"/>
	<path d="M75.9,34.7V22.8h3.2c1,0,1.8,0,2.2,0.1c0.5,0.1,0.8,0.3,1.1,0.5c0.3,0.3,0.6,0.6,0.8,1c0.2,0.4,0.3,0.9,0.3,1.4
		c0,0.7-0.1,1.3-0.4,1.7c-0.2,0.5-0.6,0.8-1.1,1.1c0.9,0.4,1.3,1.3,1.4,2.7l0,0c0,0.1,0,0.4,0,0.6c0,1.3,0.2,2.2,0.7,2.5h-3.2
		c-0.1-0.2-0.1-0.5-0.2-0.8c0-0.3-0.1-0.6-0.1-0.9c0-0.2,0-0.4,0-0.7s0-0.4,0-0.5c0-0.7-0.1-1.2-0.3-1.5c-0.2-0.3-0.5-0.4-1-0.4
		h-0.6v4.8h-2.8V34.7z M78.7,27.7c0,0,0.1,0,0.2,0s0.1,0,0.2,0c0.6,0,1-0.1,1.2-0.3c0.2-0.2,0.4-0.6,0.4-1.2c0-0.5-0.1-0.9-0.4-1.1
		c-0.2-0.2-0.6-0.3-1.2-0.3c0,0-0.1,0-0.2,0s-0.1,0-0.2,0V27.7z"/>
	<path d="M85,28.7c0-1.4,0.1-2.5,0.2-3.1s0.3-1.2,0.5-1.5c0.3-0.5,0.8-0.9,1.3-1.2c0.6-0.3,1.2-0.4,2-0.4s1.4,0.1,2,0.4
		c0.5,0.3,1,0.6,1.3,1.2c0.2,0.4,0.4,0.9,0.5,1.6s0.2,1.7,0.2,3.1s-0.1,2.5-0.2,3.1c-0.1,0.7-0.3,1.2-0.5,1.6
		C92,34,91.5,34.4,91,34.7s-1.2,0.4-2,0.4s-1.4-0.1-2-0.4c-0.6-0.3-1-0.6-1.3-1.2c-0.2-0.4-0.4-0.9-0.5-1.5C85,31.2,85,30.2,85,28.7
		z M90.1,29.8v-2.1c0-1.3-0.1-2.1-0.3-2.4s-0.5-0.5-0.9-0.5S88.2,25,88,25.3c-0.2,0.3-0.2,1.1-0.2,2.4v2.1c0,1.3,0.1,2.1,0.2,2.4
		c0.2,0.3,0.5,0.5,0.9,0.5s0.7-0.2,0.9-0.5C90,31.9,90.1,31.1,90.1,29.8z"/>
	<path d="M93.8,30.7h2.6c0,1,0,1.6,0.1,1.8s0.3,0.3,0.5,0.3s0.3-0.1,0.4-0.2c0.1-0.1,0.1-0.4,0.1-0.9v-8.9h2.8v7.8
		c0,0.9,0,1.5-0.1,2c-0.1,0.4-0.2,0.8-0.3,1.1c-0.2,0.4-0.6,0.8-1,1s-1,0.3-1.7,0.3c-1.2,0-2.1-0.3-2.6-0.8
		c-0.5-0.6-0.8-1.5-0.8-2.8c0-0.2,0-0.3,0-0.4C93.8,30.8,93.8,30.8,93.8,30.7z"/>
	<path d="M101.4,34.7l2.6-11.9h3.3l2.6,11.9h-2.8l-0.3-2.3h-2.2l-0.3,2.3H101.4z M104.9,30.3h1.6l-0.8-5.2L104.9,30.3z"/>
	<path d="M110.6,30.6h2.5V31c0,0.7,0.1,1.1,0.2,1.4c0.2,0.3,0.4,0.4,0.8,0.4c0.3,0,0.5-0.1,0.7-0.3s0.3-0.5,0.3-0.8
		c0-0.6-0.4-1.1-1.2-1.7c-0.1-0.1-0.2-0.2-0.3-0.2c0,0-0.1,0-0.1-0.1c-1.1-0.8-1.8-1.3-2.1-1.7c-0.2-0.3-0.3-0.6-0.4-1
		s-0.2-0.8-0.2-1.2c0-1,0.3-1.9,0.9-2.4c0.6-0.6,1.4-0.9,2.5-0.9s2,0.3,2.6,0.9s0.9,1.4,0.9,2.5c0,0,0,0.1,0,0.2s0,0.1,0,0.2h-2.5
		v-0.1c0-0.5-0.1-0.9-0.2-1.2c-0.2-0.3-0.4-0.4-0.7-0.4s-0.5,0.1-0.6,0.3c-0.2,0.2-0.2,0.4-0.2,0.7c0,0.5,0.5,1,1.4,1.6
		c0.2,0.1,0.3,0.2,0.4,0.2c0.1,0,0.2,0.1,0.3,0.2c1,0.6,1.6,1.1,1.9,1.6c0.2,0.3,0.3,0.6,0.4,0.9c0.1,0.3,0.1,0.7,0.1,1.1
		c0,1.2-0.3,2.1-0.9,2.7s-1.5,1-2.6,1c-1.2,0-2.1-0.3-2.7-0.9c-0.6-0.6-0.9-1.5-0.9-2.7c0-0.1,0-0.2,0-0.2
		C110.6,31,110.6,30.8,110.6,30.6z"/>
	<path d="M128.4,30.1h2.7c0,0.1,0,0.1,0,0.2s0,0.2,0,0.4c0,1.4-0.3,2.5-1,3.2c-0.7,0.7-1.6,1.1-2.9,1.1c-0.8,0-1.4-0.1-2-0.4
		c-0.6-0.3-1-0.6-1.3-1.2c-0.2-0.4-0.4-0.9-0.5-1.5c-0.1-0.7-0.2-1.7-0.2-3.1s0.1-2.5,0.2-3.1s0.3-1.2,0.5-1.5
		c0.3-0.5,0.8-0.9,1.3-1.2c0.5-0.3,1.2-0.4,2-0.4c1.3,0,2.3,0.4,2.9,1.1c0.6,0.7,1,1.8,1,3.2V27h-2.7c0-0.8-0.1-1.4-0.3-1.7
		c-0.2-0.3-0.5-0.5-0.9-0.5s-0.8,0.2-0.9,0.6c-0.2,0.4-0.2,1.5-0.2,3.2v0.2c0,1.8,0.1,3,0.2,3.4c0.2,0.4,0.5,0.6,0.9,0.6
		s0.7-0.2,0.9-0.5c0.2-0.3,0.3-0.9,0.3-1.7V30.1z"/>
</g>
<g>
	<path d="M75.1,6.5l1.3-6h1.7l1.3,6H78l-0.2-1.2h-1.1l-0.2,1.2H75.1z M76.9,4.3h0.8l-0.4-2.6L76.9,4.3z"/>
	<path d="M80,6.5v-6h1.6c0.5,0,0.9,0,1.1,0.1c0.2,0,0.4,0.1,0.6,0.2s0.3,0.3,0.4,0.5s0.1,0.5,0.1,0.7c0,0.3-0.1,0.6-0.2,0.9
		c-0.1,0.2-0.3,0.4-0.6,0.6c0.4,0.2,0.7,0.7,0.7,1.4l0,0c0,0.1,0,0.2,0,0.3c0,0.7,0.1,1.1,0.3,1.3h-1.7c0-0.1-0.1-0.3-0.1-0.4
		s0-0.3,0-0.4s0-0.2,0-0.4c0-0.1,0-0.2,0-0.3c0-0.4,0-0.6-0.1-0.8S81.8,4,81.6,4h-0.3v2.4H80V6.5z M81.4,3L81.4,3c0.1,0,0.2,0,0.2,0
		c0.3,0,0.5-0.1,0.6-0.2s0.2-0.3,0.2-0.6s-0.1-0.4-0.2-0.6c-0.1-0.1-0.3-0.2-0.6-0.2c0,0,0,0-0.1,0h-0.1V3z"/>
	<path d="M86.8,6.7c-0.1,0-0.1,0-0.2,0s-0.1,0-0.2,0c-0.3,0-0.6,0-0.8-0.1c-0.2-0.1-0.4-0.2-0.6-0.4c-0.2-0.2-0.3-0.5-0.4-0.8
		s-0.1-1-0.1-1.8c0-0.7,0-1.3,0.1-1.6s0.1-0.6,0.3-0.8c0.2-0.3,0.4-0.5,0.7-0.6c0.3-0.1,0.6-0.2,1-0.2s0.7,0.1,1,0.2
		s0.5,0.3,0.7,0.6c0.1,0.2,0.2,0.5,0.3,0.8c0.1,0.4,0.1,0.9,0.1,1.6c0,0.9,0,1.5-0.1,1.9s-0.3,0.6-0.5,0.8l0.5,0.5l-0.8,0.7
		L86.8,6.7z M87.1,4.1V3c0-0.7,0-1.1-0.1-1.2c-0.1-0.2-0.2-0.2-0.5-0.2c-0.2,0-0.4,0.1-0.4,0.2C86,2,86,2.4,86,3v1.1
		c0,0.7,0,1.1,0.1,1.2c0.1,0.2,0.2,0.2,0.5,0.2c0.2,0,0.4-0.1,0.5-0.2C87.1,5.1,87.1,4.7,87.1,4.1z"/>
	<path d="M89.3,6.5V5.2h1.4v1.4L89.3,6.5L89.3,6.5z"/>
</g>
</svg>
